<svg width="962" height="342" xmlns="http://www.w3.org/2000/svg"><g fill="none" fill-rule="evenodd"><path d="M735.01 110.067h-16.372l.052 121.866h66.236v-15.07h-49.863l-.052-106.796zm112.986 100.47c-4.093 4.279-10.977 8.559-20.28 8.559-12.466 0-17.49-6.14-17.49-14.141 0-12.093 8.373-17.861 26.235-17.861 3.349 0 8.744.372 11.535.93v22.513zm-16.931-73.864a54.535 54.535 0 0 0-34.812 12.489l5.787 10.024c6.698-3.907 14.885-7.815 26.606-7.815 13.396 0 19.35 6.885 19.35 18.42v5.954c-2.605-.558-8-.931-11.35-.931-28.652 0-43.164 10.047-43.164 31.072 0 18.79 11.535 28.28 29.024 28.28 11.78 0 23.07-5.396 26.978-14.14l2.977 11.907h11.536v-62.328c0-19.722-8.56-32.932-32.932-32.932zm85.76 82.98c-6.14 0-11.536-.744-15.629-2.605v-56.374c5.582-4.652 12.466-8 21.211-8 15.814 0 21.954 11.162 21.954 29.21 0 25.675-9.86 37.77-27.536 37.77m6.881-82.982c-14.633 0-22.51 9.955-22.51 9.955v-15.722l-.052-20.838h-16l.052 118.89c8 3.348 18.977 5.208 30.885 5.208 30.513 0 45.211-19.535 45.211-53.21 0-26.607-13.585-44.283-37.586-44.283m-366.674-13.395c14.512 0 23.815 4.837 29.955 9.675l7.036-12.188c-9.59-8.41-22.49-12.93-36.247-12.93-34.792 0-59.165 21.21-59.165 64.003 0 44.84 26.294 62.329 56.374 62.329 15.07 0 27.909-3.535 36.28-7.07l-.342-47.91v-15.071H546.27v15.072h28.466l.343 36.373c-3.721 1.86-10.233 3.349-18.977 3.349-24.187 0-40.374-15.215-40.374-47.258 0-32.56 16.745-48.374 41.304-48.374m115.145-13.21h-16.001l.052 20.466v70.701c0 19.722 8.559 32.932 32.932 32.932 3.367 0 6.662-.306 9.86-.887v-14.37a48.976 48.976 0 0 1-7.441.558c-13.396 0-19.35-6.884-19.35-18.42v-48.745h26.792v-13.396h-26.792l-.052-28.84zm-56.602 121.866h16.001v-93.028h-16.001v93.028zm0-105.865h16.001v-16.001h-16.001v16.001z" fill="#8C929D"/><path d="M185.398 341.13l68.013-209.322H117.385l68.013 209.322z" fill="#E24329"/><path d="M185.398 341.13l-68.013-209.322H22.066L185.398 341.13z" fill="#FC6D26"/><path d="M22.066 131.808L1.397 195.42a14.08 14.08 0 0 0 5.116 15.743L185.398 341.13 22.066 131.81z" fill="#FCA326"/><path d="M22.066 131.808h95.32L76.42 5.735c-2.108-6.487-11.285-6.487-13.392 0L22.066 131.808z" fill="#E24329"/><path d="M185.398 341.13l68.013-209.322h95.32L185.397 341.13z" fill="#FC6D26"/><path d="M348.73 131.808l20.67 63.611a14.08 14.08 0 0 1-5.117 15.743L185.398 341.13 348.73 131.81z" fill="#FCA326"/><path d="M348.73 131.808h-95.319L294.375 5.735c2.108-6.487 11.285-6.487 13.392 0l40.963 126.073z" fill="#E24329"/></g></svg>